<?xml version="1.0" encoding="UTF-8"?> <svg xmlns="http://www.w3.org/2000/svg" width="317" height="76" viewBox="0 0 317 76" fill="none"> <path fill-rule="evenodd" clip-rule="evenodd" d="M0 24.8614V49.7227H2.4975H4.995L5.0004 41.9238L5.00566 34.1248L6.51915 35.7088C11.8005 41.2368 15.311 44.7998 15.4134 44.7359C15.4784 44.6953 15.515 44.7187 15.4946 44.7879C15.4742 44.8571 16.4853 45.9957 17.7414 47.3182L20.0252 49.7227H23.4163H26.8074L18.9386 41.7901L11.0699 33.8575L11.6784 33.3326C12.0131 33.044 12.2517 32.7501 12.2085 32.6796C12.1653 32.6091 12.1889 32.5683 12.2608 32.5888C12.3328 32.6094 12.9209 32.1359 13.5675 31.5365C14.2142 30.9371 14.8806 30.3241 15.0485 30.1742C15.2161 30.0244 16.0148 29.2823 16.823 28.525C17.6313 27.7679 18.6565 26.8177 19.1014 26.4135C19.5462 26.0095 20.4304 25.1883 21.0661 24.5889C22.393 23.3379 24.5824 21.3188 25.1775 20.7975L25.5825 20.4426L22.3425 20.4404C20.5605 20.4392 19.0341 20.4832 18.9505 20.5382C18.8093 20.6313 16.0878 23.225 12.8978 26.307C12.1524 27.0272 11.0592 28.0694 10.4686 28.6229C8.80673 30.1802 7.1932 31.7134 6.07864 32.7945L5.0625 33.7801L5.02821 16.8901L4.99392 0H2.49696H0V24.8614ZM44.55 19.488C42.5987 19.7786 40.2243 20.7135 38.9582 21.69C35.3957 24.4373 33.5665 28.229 33.2082 33.6096C32.8045 39.6734 34.5191 44.5691 38.1983 47.8564C39.2486 48.795 41.011 49.8872 41.3439 49.8058C41.474 49.7741 41.5495 49.7986 41.5117 49.8602C41.474 49.9219 41.8231 50.0982 42.2878 50.2518C46.4252 51.6212 50.7188 51.108 53.7949 48.8766C54.7699 48.1693 56.1747 46.6789 56.8814 45.6019C57.2625 45.0211 57.6138 44.5461 57.6623 44.5461C57.7107 44.5461 57.7498 45.6956 57.749 47.1004L57.7475 49.6546L60.0587 49.6919C62.1949 49.7264 62.3701 49.7109 62.3719 49.4876C62.3728 49.3546 62.373 43.2383 62.372 35.8957C62.3709 28.5531 62.3701 22.0705 62.3701 21.4898L62.37 20.434H60.0075H57.645V23.1585C57.645 25.6297 57.5591 26.2915 57.3203 25.6632C57.2743 25.5422 56.898 24.9299 56.4843 24.3023C54.7349 21.6494 52.0299 19.9535 48.8025 19.4864C47.7064 19.3277 45.6208 19.3285 44.55 19.488ZM84.5775 19.5402C83.9835 19.6435 83.1854 19.826 82.8039 19.9456C81.2036 20.4472 79.1648 21.5551 79.3338 21.8311C79.385 21.9146 79.3571 21.9343 79.267 21.8781C79.1817 21.8249 78.9604 21.9348 78.7736 22.1233C78.5874 22.3112 78.435 22.4397 78.435 22.4086C78.435 22.3775 78.1861 22.591 77.8819 22.8831C77.5385 23.2128 77.3672 23.4769 77.4302 23.5797C77.4897 23.677 77.4754 23.7104 77.3955 23.6605C77.1374 23.4996 76.0621 24.962 75.2667 26.5559C73.2314 30.6341 72.878 36.783 74.405 41.5491C74.9633 43.292 76.6649 46.2905 76.9831 46.0922C77.0687 46.0388 77.087 46.0672 77.0287 46.1626C76.8965 46.3782 78.6444 48.142 78.8581 48.0086C78.9526 47.9497 78.9808 47.9683 78.9279 48.0546C78.7294 48.3787 81.3584 49.8748 83.0439 50.3971C85.7852 51.2464 89.3098 51.1631 91.7556 50.1909C92.6439 49.8378 94.4739 48.696 95.1769 48.0563C95.7482 47.5363 97.058 45.9238 97.5124 45.1811L97.9425 44.478L97.9792 47.1004L98.0158 49.7227H100.375H102.735V35.0784V20.434H100.308H97.8805L97.8441 23.1926L97.8075 25.9512L97.2999 25.0413C96.7472 24.0501 95.6328 22.6613 95.4342 22.7158C95.3659 22.7346 95.3251 22.6777 95.3438 22.5892C95.3956 22.3428 93.6052 21.0207 92.5111 20.4973C90.9307 19.7414 89.6936 19.4698 87.5475 19.4073C86.3116 19.3713 85.2838 19.4173 84.5775 19.5402ZM110.463 28.233L110.498 36.3044H120.454H130.41V40.6296V44.9548H120.42H110.43V47.2025V49.4503H122.715H135V40.5964V31.7426L125.073 31.7076L115.145 31.6727V28.1989V24.7251L124.971 24.6916C130.376 24.6732 134.843 24.658 134.899 24.6576C134.954 24.6573 135 23.6455 135 22.4093V20.1615H122.714H110.428L110.463 28.233ZM50.88 24.6542C52.6924 25.2416 54.1368 26.252 55.363 27.7902C55.7511 28.2773 56.1241 28.6588 56.1919 28.6382C56.2596 28.6177 56.278 28.6614 56.2326 28.7354C56.1874 28.8094 56.3051 29.1783 56.4945 29.5552C56.6838 29.9321 56.8372 30.2719 56.8353 30.3102C56.8334 30.3484 56.9227 30.5991 57.0337 30.8671C57.6137 32.268 57.8634 36.0127 57.5109 38.0232C56.7784 42.1995 54.4815 44.8795 50.854 45.7906C49.4725 46.1375 46.9739 46.1635 45.495 45.8464C44.489 45.6306 42.6673 44.8545 42.2303 44.4555C42.1006 44.3369 41.9256 44.2915 41.8248 44.3502C41.7273 44.407 41.6943 44.4016 41.7514 44.3381C41.887 44.1877 40.9026 43.1693 40.7272 43.2787C40.6492 43.3273 40.6361 43.2923 40.6958 43.1948C40.7553 43.0978 40.6844 42.9031 40.5271 42.731C39.6322 41.7528 38.755 39.4611 38.4719 37.3618C38.2639 35.8203 38.3692 32.7257 38.6724 31.4684C39.55 27.828 41.6312 25.5349 44.8458 24.6666C46.3248 24.267 46.372 24.2622 48.2625 24.3206C49.5438 24.3601 50.2502 24.4501 50.88 24.6542ZM90.4219 24.4637C90.9942 24.5822 91.9717 24.9193 92.5941 25.2127C94.1805 25.9604 95.8005 27.599 96.6912 29.3568C97.7134 31.3744 97.931 32.442 97.927 35.4189C97.9233 38.0436 97.8093 38.7837 97.1179 40.6637C96.7977 41.5347 95.9662 42.8013 95.221 43.5533C93.3541 45.4372 90.3829 46.3682 87.2693 46.0449C84.8026 45.7888 83.2646 45.1368 81.7416 43.7015C81.2056 43.1964 80.7187 42.8273 80.6594 42.8813C80.6001 42.9354 80.5951 42.9034 80.6481 42.8103C80.7023 42.7154 80.5729 42.3872 80.3524 42.0611C79.8844 41.3688 79.331 40.0031 79.0339 38.807C78.74 37.6238 78.622 33.8703 78.833 32.4145C79.378 28.6535 81.5165 25.8675 84.695 24.7784C86.279 24.2355 88.6822 24.1035 90.4219 24.4637ZM122.507 26.675C122.281 26.8177 121.992 27.0943 121.865 27.2895C121.599 27.7003 121.568 28.6745 121.808 29.107C122.228 29.8621 123.239 30.2576 123.973 29.9537C124.794 29.6135 125.145 29.0772 125.145 28.1624C125.145 27.6814 125.058 27.463 124.706 27.0552C124.335 26.6251 124.164 26.5371 123.593 26.4814C123.08 26.4312 122.819 26.4778 122.507 26.675ZM122.495 39.0859C121.884 39.4613 121.635 39.8922 121.635 40.5708C121.635 41.2398 122.006 42.0002 122.28 41.8939C122.379 41.8559 122.426 41.8784 122.386 41.9439C122.243 42.177 122.747 42.4189 123.375 42.4189C124.109 42.4189 124.587 42.1243 124.95 41.4482C125.787 39.8854 123.996 38.1619 122.495 39.0859ZM24.03 65.8656V75.6058H24.9075H25.785L25.7981 73.0516C25.8052 71.6468 25.8007 70.2675 25.7877 69.9865C25.7593 69.3663 25.9189 69.3413 26.3791 69.8931C26.5829 70.1374 26.7926 70.2701 26.8846 70.2127C26.9862 70.1492 27.0053 70.1742 26.9383 70.2834C26.8701 70.3947 27.7005 71.3295 29.3773 73.0291L31.9198 75.6058H33.2057H34.4916L31.3762 72.4705L28.2608 69.3353L28.9474 68.6903C29.8839 67.8106 32.6149 65.2716 33.2775 64.6648L33.8175 64.1701L32.6025 64.1702L31.3875 64.1705L30.5695 64.9499C27.2464 68.1166 26.0082 69.277 25.9127 69.3136C25.8522 69.3371 25.8063 69.1838 25.8109 68.9731C25.8154 68.7625 25.8115 65.7856 25.802 62.3578L25.785 56.1254H24.9075H24.03V65.8656ZM61.02 65.7294C61.02 71.0116 61.0195 75.3793 61.0188 75.4355C61.0181 75.4918 61.4081 75.5557 61.8855 75.5777L62.7535 75.6178L62.798 71.6272C62.841 67.7683 62.8526 67.6194 63.1479 67.1152C63.3157 66.8286 63.4175 66.5358 63.374 66.4647C63.3305 66.3937 63.345 66.3523 63.4063 66.3726C63.4674 66.3929 63.7301 66.2457 63.99 66.0454C64.2499 65.845 64.8439 65.5742 65.3099 65.4436C66.931 64.9888 68.4362 65.5663 69.0348 66.8726C69.3044 67.4609 69.3252 67.7548 69.3653 71.5531L69.4081 75.6058H70.3538H71.2994L71.2548 71.0763C71.2041 65.9388 71.2199 66.0246 70.1106 64.868C69.2654 63.9869 68.3956 63.7071 66.712 63.7751C65.3075 63.8317 64.294 64.2762 63.4414 65.2098C63.146 65.5331 62.8753 65.7975 62.8397 65.7975C62.8042 65.7975 62.775 63.6213 62.775 60.9614V56.1254H61.8975H61.02V65.7294ZM36.8998 57.36C35.676 58.1511 36.3806 60.1129 37.8 59.8667C38.7993 59.6936 39.2803 58.6439 38.7513 57.7908C38.2994 57.0615 37.6098 56.9011 36.8998 57.36ZM43.1607 59.4798C43.1081 59.533 43.065 60.6083 43.065 61.8697V64.1628H42.0525H41.04V64.912V65.6613H42.0525H43.065V70.6335V75.6058H44.01H44.955V70.6393V65.6727L46.0013 65.6329L47.0475 65.5931L47.0881 64.8838L47.1288 64.1745L46.0756 64.1346L45.0225 64.0947L44.955 61.7788L44.8875 59.4629L44.072 59.4232C43.6234 59.4012 43.2134 59.4267 43.1607 59.4798ZM79.0039 63.7674C76.8178 64.0443 75.0577 65.6918 74.4337 68.0452C74.0664 69.4311 74.2928 71.7669 74.9135 72.9949C75.602 74.3565 77.1343 75.5609 78.5873 75.8823C79.6393 76.115 81.4166 75.9904 82.3806 75.6161C83.1681 75.3106 84.5286 74.16 85.0487 73.3601L85.3016 72.9709L84.6021 72.5223L83.9025 72.0737L83.6326 72.4434C82.5186 73.9701 81.6819 74.4479 80.1225 74.4479C79.2397 74.4479 78.923 74.3863 78.3887 74.1108C77.1752 73.4854 76.4153 72.2658 76.3686 70.8688L76.3425 70.0886L80.8313 70.0528L85.32 70.0168L85.3184 69.2354C85.3176 68.8055 85.2339 68.1474 85.1325 67.7728C84.8985 66.908 84.2752 65.6664 84.0268 65.5701C83.9222 65.5297 83.8677 65.4457 83.9056 65.3838C83.9435 65.3216 83.6268 65.0196 83.2017 64.7124C82.0413 63.8738 80.6452 63.5596 79.0039 63.7674ZM52.4475 64.0016C51.3757 64.405 51.0077 64.6367 50.2783 65.3673C48.4853 67.163 47.9536 70.3898 49.0528 72.8062C49.5334 73.8629 50.5981 74.9474 51.6676 75.4697C52.4667 75.86 52.7534 75.9243 53.9325 75.9782C55.4233 76.0464 56.962 75.7949 57.6925 75.3639C58.1033 75.1215 58.1182 75.0802 58.136 74.1335C58.1463 73.5946 58.1252 73.1537 58.0893 73.1537C58.0535 73.1537 57.5591 73.3775 56.9908 73.6511C54.9866 74.6157 53.075 74.4099 51.7595 73.0875C50.787 72.1099 50.4398 71.1451 50.5274 69.6639C50.6316 67.9044 51.3495 66.6885 52.7175 65.9551C53.3255 65.6291 53.5332 65.5933 54.81 65.5949C56.1172 65.5967 56.2935 65.6294 57.0765 66.0161L57.9255 66.4356L57.8865 65.4065L57.8475 64.3774L57.0375 64.117C55.8274 63.7279 53.3405 63.6654 52.4475 64.0016ZM92.7684 63.9489C92.0384 64.188 91.3104 64.6935 90.7978 65.3171C90.5807 65.5813 90.3529 65.7975 90.2915 65.7975C90.2302 65.7975 90.18 65.4297 90.18 64.9801V64.1628H89.3025H88.425V69.8905V75.6182L89.3363 75.578L90.2475 75.5377L90.3365 71.4509C90.423 67.48 90.454 66.846 90.5573 66.9501C90.5845 66.9776 90.8183 66.7637 91.0769 66.4748C91.776 65.6941 92.5908 65.3463 93.7447 65.3359C95.102 65.324 95.924 65.7426 96.39 66.683C96.7244 67.358 96.7279 67.4013 96.7685 71.4849L96.8096 75.6058H97.7473H98.685V71.2622C98.685 66.2759 98.627 65.9093 97.6815 64.9298C96.8369 64.0547 96.2763 63.8414 94.7025 63.7963C93.8127 63.7707 93.1534 63.8227 92.7684 63.9489ZM105.217 63.9669C104.532 64.2211 103.612 64.9991 103.318 65.5727C102.803 66.5745 102.847 67.7245 103.431 68.5209C103.955 69.2363 105.691 70.2778 107.181 70.77C109.03 71.3813 109.653 72.3595 108.941 73.5365C108.593 74.1126 107.953 74.3798 106.919 74.3798C105.928 74.3798 105.282 74.0814 104.582 73.2998C104.309 72.9948 104.037 72.745 103.977 72.745C103.917 72.745 103.658 72.9024 103.402 73.0949C103.147 73.2872 102.855 73.4924 102.755 73.551C102.487 73.7065 102.859 74.3686 103.549 74.9643C104.407 75.7057 105.679 76.06 107.236 75.9913C108.39 75.9404 108.568 75.8943 109.275 75.4641C110.681 74.6079 111.29 73.2766 110.975 71.747C110.706 70.4399 110.037 69.8914 107.675 69.0413C105.788 68.3619 105.249 68.0542 104.944 67.4829C104.721 67.0658 104.717 66.9768 104.899 66.4582C105.164 65.6997 105.651 65.359 106.58 65.2812C107.732 65.1847 108.852 65.7113 109.33 66.5737C109.451 66.7929 109.491 66.7908 109.953 66.541C110.225 66.3943 110.542 66.1686 110.659 66.0394C110.852 65.8255 110.849 65.7706 110.628 65.4264C110.289 64.8988 109.791 64.4815 109.08 64.1299C108.293 63.7407 106.078 63.6473 105.217 63.9669ZM36.72 69.8905V75.6182L37.6313 75.578L38.5425 75.5377L38.5777 69.8502L38.613 64.1628H37.6665H36.72V69.8905ZM81.4556 65.5948C81.7069 65.7008 82.0939 65.9415 82.3157 66.1299C82.7937 66.5357 83.3282 67.7105 83.2692 68.2254L83.2275 68.5901L80.055 68.6285C78.3101 68.6497 76.7414 68.6321 76.5692 68.5894C76.2953 68.5217 76.2676 68.4568 76.3494 68.0742C76.5535 67.1193 77.2628 66.1297 78.03 65.7294C78.975 65.2362 80.4662 65.1777 81.4556 65.5948ZM30.1223 71.4849C30.2901 71.701 30.2854 71.7058 30.0713 71.5364C29.9414 71.4336 29.835 71.3262 29.835 71.298C29.835 71.1859 29.9458 71.258 30.1223 71.4849ZM31.3373 72.711C31.5051 72.927 31.5004 72.9318 31.2863 72.7625C31.0613 72.5844 30.9899 72.4726 31.101 72.4726C31.129 72.4726 31.2354 72.5799 31.3373 72.711Z" fill="#0192CB"></path> <path d="M163.949 26.3184H165.361C165.854 26.3184 166.309 26.4023 166.727 26.5703C167.148 26.7344 167.516 26.9688 167.828 27.2734C168.145 27.5781 168.391 27.9414 168.566 28.3633C168.742 28.7812 168.83 29.2441 168.83 29.752C168.83 30.2598 168.742 30.7246 168.566 31.1465C168.391 31.5684 168.145 31.9336 167.828 32.2422C167.516 32.5469 167.148 32.7832 166.727 32.9512C166.309 33.1152 165.854 33.1973 165.361 33.1973H163.949C163.457 33.1973 163.002 33.1152 162.584 32.9512C162.166 32.7832 161.799 32.5469 161.482 32.2422C161.17 31.9375 160.926 31.5762 160.75 31.1582C160.578 30.7363 160.492 30.2715 160.492 29.7637C160.492 29.2559 160.578 28.793 160.75 28.375C160.926 27.9531 161.17 27.5898 161.482 27.2852C161.799 26.9766 162.166 26.7383 162.584 26.5703C163.002 26.4023 163.457 26.3184 163.949 26.3184ZM163.949 27.209C163.438 27.209 163.004 27.3164 162.648 27.5312C162.293 27.7422 162.023 28.0391 161.84 28.4219C161.656 28.8047 161.564 29.252 161.564 29.7637C161.564 30.1504 161.615 30.5 161.717 30.8125C161.822 31.125 161.977 31.3926 162.18 31.6152C162.383 31.8379 162.633 32.0098 162.93 32.1309C163.227 32.252 163.566 32.3125 163.949 32.3125H165.373C165.881 32.3125 166.311 32.207 166.662 31.9961C167.018 31.7812 167.287 31.4824 167.471 31.0996C167.658 30.7129 167.752 30.2637 167.752 29.752C167.752 29.3691 167.699 29.0215 167.594 28.709C167.488 28.3965 167.334 28.1289 167.131 27.9062C166.932 27.6836 166.684 27.5117 166.387 27.3906C166.094 27.2695 165.756 27.209 165.373 27.209H163.949ZM165.203 25.1172V34.3516H164.119V25.1172H165.203Z" fill="black"></path> <path d="M173.834 32.916V29.6523C173.834 29.4023 173.783 29.1855 173.682 29.002C173.584 28.8145 173.436 28.6699 173.236 28.5684C173.037 28.4668 172.791 28.416 172.498 28.416C172.225 28.416 171.984 28.4629 171.777 28.5566C171.574 28.6504 171.414 28.7734 171.297 28.9258C171.184 29.0781 171.127 29.2422 171.127 29.418H170.043C170.043 29.1914 170.102 28.9668 170.219 28.7441C170.336 28.5215 170.504 28.3203 170.723 28.1406C170.945 27.957 171.211 27.8125 171.52 27.707C171.832 27.5977 172.18 27.543 172.562 27.543C173.023 27.543 173.43 27.6211 173.781 27.7773C174.137 27.9336 174.414 28.1699 174.613 28.4863C174.816 28.7988 174.918 29.1914 174.918 29.6641V32.6172C174.918 32.8281 174.936 33.0527 174.971 33.291C175.01 33.5293 175.066 33.7344 175.141 33.9062V34H174.01C173.955 33.875 173.912 33.709 173.881 33.502C173.85 33.291 173.834 33.0957 173.834 32.916ZM174.021 30.1562L174.033 30.918H172.938C172.629 30.918 172.354 30.9434 172.111 30.9941C171.869 31.041 171.666 31.1133 171.502 31.2109C171.338 31.3086 171.213 31.4316 171.127 31.5801C171.041 31.7246 170.998 31.8945 170.998 32.0898C170.998 32.2891 171.043 32.4707 171.133 32.6348C171.223 32.7988 171.357 32.9297 171.537 33.0273C171.721 33.1211 171.945 33.168 172.211 33.168C172.543 33.168 172.836 33.0977 173.09 32.957C173.344 32.8164 173.545 32.6445 173.693 32.4414C173.846 32.2383 173.928 32.041 173.939 31.8496L174.402 32.3711C174.375 32.5352 174.301 32.7168 174.18 32.916C174.059 33.1152 173.896 33.3066 173.693 33.4902C173.494 33.6699 173.256 33.8203 172.979 33.9414C172.705 34.0586 172.396 34.1172 172.053 34.1172C171.623 34.1172 171.246 34.0332 170.922 33.8652C170.602 33.6973 170.352 33.4727 170.172 33.1914C169.996 32.9062 169.908 32.5879 169.908 32.2363C169.908 31.8965 169.975 31.5977 170.107 31.3398C170.24 31.0781 170.432 30.8613 170.682 30.6895C170.932 30.5137 171.232 30.3809 171.584 30.291C171.936 30.2012 172.328 30.1562 172.762 30.1562H174.021Z" fill="black"></path> <path d="M180.689 24.9004H181.58C181.58 25.2832 181.521 25.5879 181.404 25.8145C181.287 26.0371 181.127 26.209 180.924 26.3301C180.725 26.4512 180.498 26.543 180.244 26.6055C179.994 26.668 179.734 26.7285 179.465 26.7871C179.129 26.8574 178.816 26.9688 178.527 27.1211C178.242 27.2695 177.996 27.4805 177.789 27.7539C177.586 28.0273 177.436 28.3828 177.338 28.8203C177.244 29.2578 177.219 29.7988 177.262 30.4434V30.9824H176.371V30.4434C176.371 29.7207 176.439 29.0898 176.576 28.5508C176.717 28.0117 176.914 27.5566 177.168 27.1855C177.422 26.8145 177.723 26.5195 178.07 26.3008C178.422 26.082 178.809 25.9316 179.23 25.8496C179.535 25.791 179.797 25.7285 180.016 25.6621C180.234 25.5918 180.4 25.498 180.514 25.3809C180.631 25.2637 180.689 25.1035 180.689 24.9004ZM179.406 28.0234C179.82 28.0234 180.189 28.0957 180.514 28.2402C180.838 28.3848 181.113 28.5859 181.34 28.8438C181.566 29.1016 181.738 29.4062 181.855 29.7578C181.977 30.1055 182.037 30.4844 182.037 30.8945V31.0234C182.037 31.4648 181.973 31.875 181.844 32.2539C181.719 32.6289 181.533 32.957 181.287 33.2383C181.045 33.5156 180.748 33.7324 180.396 33.8887C180.049 34.0449 179.652 34.123 179.207 34.123C178.762 34.123 178.363 34.0449 178.012 33.8887C177.664 33.7324 177.367 33.5156 177.121 33.2383C176.875 32.957 176.688 32.6289 176.559 32.2539C176.434 31.875 176.371 31.4648 176.371 31.0234V30.8945C176.371 30.7969 176.389 30.7012 176.424 30.6074C176.459 30.5137 176.502 30.418 176.553 30.3203C176.607 30.2227 176.656 30.1191 176.699 30.0098C176.844 29.6582 177.041 29.332 177.291 29.0312C177.545 28.7305 177.848 28.4883 178.199 28.3047C178.555 28.1172 178.957 28.0234 179.406 28.0234ZM179.195 28.9082C178.797 28.9082 178.469 29 178.211 29.1836C177.957 29.3672 177.768 29.6113 177.643 29.916C177.518 30.2168 177.455 30.543 177.455 30.8945V31.0234C177.455 31.3203 177.49 31.6016 177.561 31.8672C177.631 32.1328 177.736 32.3691 177.877 32.5762C178.021 32.7793 178.203 32.9395 178.422 33.0566C178.645 33.1738 178.906 33.2324 179.207 33.2324C179.508 33.2324 179.768 33.1738 179.986 33.0566C180.205 32.9395 180.385 32.7793 180.525 32.5762C180.666 32.3691 180.771 32.1328 180.842 31.8672C180.912 31.6016 180.947 31.3203 180.947 31.0234V30.8945C180.947 30.6289 180.912 30.377 180.842 30.1387C180.771 29.9004 180.664 29.6895 180.52 29.5059C180.379 29.3223 180.197 29.1777 179.975 29.0723C179.756 28.9629 179.496 28.9082 179.195 28.9082Z" fill="black"></path> <path d="M184.246 28.8789V36.4375H183.156V27.6602H184.152L184.246 28.8789ZM188.518 30.7773V30.9004C188.518 31.3613 188.463 31.7891 188.354 32.1836C188.244 32.5742 188.084 32.9141 187.873 33.2031C187.666 33.4922 187.41 33.7168 187.105 33.877C186.801 34.0371 186.451 34.1172 186.057 34.1172C185.654 34.1172 185.299 34.0508 184.99 33.918C184.682 33.7852 184.42 33.5918 184.205 33.3379C183.99 33.084 183.818 32.7793 183.689 32.4238C183.564 32.0684 183.479 31.668 183.432 31.2227V30.5664C183.479 30.0977 183.566 29.6777 183.695 29.3066C183.824 28.9355 183.994 28.6191 184.205 28.3574C184.42 28.0918 184.68 27.8906 184.984 27.7539C185.289 27.6133 185.641 27.543 186.039 27.543C186.438 27.543 186.791 27.6211 187.1 27.7773C187.408 27.9297 187.668 28.1484 187.879 28.4336C188.09 28.7188 188.248 29.0605 188.354 29.459C188.463 29.8535 188.518 30.293 188.518 30.7773ZM187.428 30.9004V30.7773C187.428 30.4609 187.395 30.1641 187.328 29.8867C187.262 29.6055 187.158 29.3594 187.018 29.1484C186.881 28.9336 186.705 28.7656 186.49 28.6445C186.275 28.5195 186.02 28.457 185.723 28.457C185.449 28.457 185.211 28.5039 185.008 28.5977C184.809 28.6914 184.639 28.8184 184.498 28.9785C184.357 29.1348 184.242 29.3145 184.152 29.5176C184.066 29.7168 184.002 29.9238 183.959 30.1387V31.6562C184.037 31.9297 184.146 32.1875 184.287 32.4297C184.428 32.668 184.615 32.8613 184.85 33.0098C185.084 33.1543 185.379 33.2266 185.734 33.2266C186.027 33.2266 186.279 33.166 186.49 33.0449C186.705 32.9199 186.881 32.75 187.018 32.5352C187.158 32.3203 187.262 32.0742 187.328 31.7969C187.395 31.5156 187.428 31.2168 187.428 30.9004Z" fill="black"></path> <path d="M191.072 32.2832L193.996 27.6602H195.086V34H193.996V29.377L191.072 34H189.994V27.6602H191.072V32.2832Z" fill="black"></path> <path d="M198.004 27.6602V34H196.92V27.6602H198.004ZM202.164 27.6602L199.158 31.293H197.641L197.477 30.3438H198.719L200.846 27.6602H202.164ZM200.998 34L198.666 31.1289L199.363 30.3438L202.375 34H200.998Z" fill="black"></path> <path d="M207.057 32.916V29.6523C207.057 29.4023 207.006 29.1855 206.904 29.002C206.807 28.8145 206.658 28.6699 206.459 28.5684C206.26 28.4668 206.014 28.416 205.721 28.416C205.447 28.416 205.207 28.4629 205 28.5566C204.797 28.6504 204.637 28.7734 204.52 28.9258C204.406 29.0781 204.35 29.2422 204.35 29.418H203.266C203.266 29.1914 203.324 28.9668 203.441 28.7441C203.559 28.5215 203.727 28.3203 203.945 28.1406C204.168 27.957 204.434 27.8125 204.742 27.707C205.055 27.5977 205.402 27.543 205.785 27.543C206.246 27.543 206.652 27.6211 207.004 27.7773C207.359 27.9336 207.637 28.1699 207.836 28.4863C208.039 28.7988 208.141 29.1914 208.141 29.6641V32.6172C208.141 32.8281 208.158 33.0527 208.193 33.291C208.232 33.5293 208.289 33.7344 208.363 33.9062V34H207.232C207.178 33.875 207.135 33.709 207.104 33.502C207.072 33.291 207.057 33.0957 207.057 32.916ZM207.244 30.1562L207.256 30.918H206.16C205.852 30.918 205.576 30.9434 205.334 30.9941C205.092 31.041 204.889 31.1133 204.725 31.2109C204.561 31.3086 204.436 31.4316 204.35 31.5801C204.264 31.7246 204.221 31.8945 204.221 32.0898C204.221 32.2891 204.266 32.4707 204.355 32.6348C204.445 32.7988 204.58 32.9297 204.76 33.0273C204.943 33.1211 205.168 33.168 205.434 33.168C205.766 33.168 206.059 33.0977 206.312 32.957C206.566 32.8164 206.768 32.6445 206.916 32.4414C207.068 32.2383 207.15 32.041 207.162 31.8496L207.625 32.3711C207.598 32.5352 207.523 32.7168 207.402 32.916C207.281 33.1152 207.119 33.3066 206.916 33.4902C206.717 33.6699 206.479 33.8203 206.201 33.9414C205.928 34.0586 205.619 34.1172 205.275 34.1172C204.846 34.1172 204.469 34.0332 204.145 33.8652C203.824 33.6973 203.574 33.4727 203.395 33.1914C203.219 32.9062 203.131 32.5879 203.131 32.2363C203.131 31.8965 203.197 31.5977 203.33 31.3398C203.463 31.0781 203.654 30.8613 203.904 30.6895C204.154 30.5137 204.455 30.3809 204.807 30.291C205.158 30.2012 205.551 30.1562 205.984 30.1562H207.244Z" fill="black"></path> <path d="M216.467 32.5586L218.623 27.6602H219.666L216.842 34H216.092L213.279 27.6602H214.322L216.467 32.5586ZM214.006 27.6602V34H212.922V27.6602H214.006ZM218.893 34V27.6602H219.982V34H218.893Z" fill="black"></path> <path d="M221.441 30.9004V30.7656C221.441 30.3086 221.508 29.8848 221.641 29.4941C221.773 29.0996 221.965 28.7578 222.215 28.4688C222.465 28.1758 222.768 27.9492 223.123 27.7891C223.479 27.625 223.877 27.543 224.318 27.543C224.764 27.543 225.164 27.625 225.52 27.7891C225.879 27.9492 226.184 28.1758 226.434 28.4688C226.688 28.7578 226.881 29.0996 227.014 29.4941C227.146 29.8848 227.213 30.3086 227.213 30.7656V30.9004C227.213 31.3574 227.146 31.7812 227.014 32.1719C226.881 32.5625 226.688 32.9043 226.434 33.1973C226.184 33.4863 225.881 33.7129 225.525 33.877C225.174 34.0371 224.775 34.1172 224.33 34.1172C223.885 34.1172 223.484 34.0371 223.129 33.877C222.773 33.7129 222.469 33.4863 222.215 33.1973C221.965 32.9043 221.773 32.5625 221.641 32.1719C221.508 31.7812 221.441 31.3574 221.441 30.9004ZM222.525 30.7656V30.9004C222.525 31.2168 222.562 31.5156 222.637 31.7969C222.711 32.0742 222.822 32.3203 222.971 32.5352C223.123 32.75 223.312 32.9199 223.539 33.0449C223.766 33.166 224.029 33.2266 224.33 33.2266C224.627 33.2266 224.887 33.166 225.109 33.0449C225.336 32.9199 225.523 32.75 225.672 32.5352C225.82 32.3203 225.932 32.0742 226.006 31.7969C226.084 31.5156 226.123 31.2168 226.123 30.9004V30.7656C226.123 30.4531 226.084 30.1582 226.006 29.8809C225.932 29.5996 225.818 29.3516 225.666 29.1367C225.518 28.918 225.33 28.7461 225.104 28.6211C224.881 28.4961 224.619 28.4336 224.318 28.4336C224.021 28.4336 223.76 28.4961 223.533 28.6211C223.311 28.7461 223.123 28.918 222.971 29.1367C222.822 29.3516 222.711 29.5996 222.637 29.8809C222.562 30.1582 222.525 30.4531 222.525 30.7656Z" fill="black"></path> <path d="M229.293 27.6602H230.377L230.283 30.0332C230.26 30.6348 230.191 31.1543 230.078 31.5918C229.965 32.0293 229.82 32.4023 229.645 32.7109C229.469 33.0156 229.271 33.2715 229.053 33.4785C228.838 33.6855 228.615 33.8594 228.385 34H227.846L227.875 33.1152L228.098 33.1094C228.227 32.957 228.352 32.8008 228.473 32.6406C228.594 32.4766 228.705 32.2832 228.807 32.0605C228.908 31.834 228.992 31.5586 229.059 31.2344C229.129 30.9062 229.174 30.5059 229.193 30.0332L229.293 27.6602ZM229.562 27.6602H233.377V34H232.293V28.6621H229.562V27.6602ZM227.6 33.1094H234.191V35.8691H233.107V34H228.684V35.8691H227.594L227.6 33.1094Z" fill="black"></path> <path d="M237.174 33.3438L238.938 27.6602H240.098L237.555 34.9785C237.496 35.1348 237.418 35.3027 237.32 35.4824C237.227 35.666 237.105 35.8398 236.957 36.0039C236.809 36.168 236.629 36.3008 236.418 36.4023C236.211 36.5078 235.963 36.5605 235.674 36.5605C235.588 36.5605 235.479 36.5488 235.346 36.5254C235.213 36.502 235.119 36.4824 235.064 36.4668L235.059 35.5879C235.09 35.5918 235.139 35.5957 235.205 35.5996C235.275 35.6074 235.324 35.6113 235.352 35.6113C235.598 35.6113 235.807 35.5781 235.979 35.5117C236.15 35.4492 236.295 35.3418 236.412 35.1895C236.533 35.041 236.637 34.8359 236.723 34.5742L237.174 33.3438ZM235.879 27.6602L237.525 32.582L237.807 33.7246L237.027 34.123L234.695 27.6602H235.879Z" fill="black"></path> <path d="M245.066 27.6602V28.5566H242.002V27.6602H245.066ZM246.021 27.6602V34H244.938V27.6602H246.021ZM241.738 27.6602H242.828L242.664 30.7188C242.637 31.1914 242.592 31.6094 242.529 31.9727C242.471 32.332 242.389 32.6406 242.283 32.8984C242.182 33.1562 242.053 33.3672 241.896 33.5312C241.744 33.6914 241.561 33.8105 241.346 33.8887C241.131 33.9629 240.883 34 240.602 34H240.262V33.0449L240.496 33.0273C240.664 33.0156 240.807 32.9766 240.924 32.9102C241.045 32.8438 241.146 32.7461 241.229 32.6172C241.311 32.4844 241.377 32.3145 241.428 32.1074C241.482 31.9004 241.523 31.6543 241.551 31.3691C241.582 31.084 241.605 30.752 241.621 30.373L241.738 27.6602Z" fill="black"></path> <path d="M248.658 29.8398H250.562C251.074 29.8398 251.506 29.9297 251.857 30.1094C252.209 30.2852 252.475 30.5293 252.654 30.8418C252.838 31.1504 252.93 31.502 252.93 31.8965C252.93 32.1895 252.879 32.4648 252.777 32.7227C252.676 32.9766 252.523 33.1992 252.32 33.3906C252.121 33.582 251.873 33.7324 251.576 33.8418C251.283 33.9473 250.945 34 250.562 34H247.867V27.6602H248.951V33.1094H250.562C250.875 33.1094 251.125 33.0527 251.312 32.9395C251.5 32.8262 251.635 32.6797 251.717 32.5C251.799 32.3203 251.84 32.1328 251.84 31.9375C251.84 31.7461 251.799 31.5586 251.717 31.375C251.635 31.1914 251.5 31.0391 251.312 30.918C251.125 30.793 250.875 30.7305 250.562 30.7305H248.658V29.8398Z" fill="black"></path> <path d="M258.584 30.4082V31.2871H255.232V30.4082H258.584ZM255.461 27.6602V34H254.377V27.6602H255.461ZM259.463 27.6602V34H258.373V27.6602H259.463Z" fill="black"></path> <path d="M262.1 29.8398H264.004C264.516 29.8398 264.947 29.9297 265.299 30.1094C265.65 30.2852 265.916 30.5293 266.096 30.8418C266.279 31.1504 266.371 31.502 266.371 31.8965C266.371 32.1895 266.32 32.4648 266.219 32.7227C266.117 32.9766 265.965 33.1992 265.762 33.3906C265.562 33.582 265.314 33.7324 265.018 33.8418C264.725 33.9473 264.387 34 264.004 34H261.309V27.6602H262.393V33.1094H264.004C264.316 33.1094 264.566 33.0527 264.754 32.9395C264.941 32.8262 265.076 32.6797 265.158 32.5C265.24 32.3203 265.281 32.1328 265.281 31.9375C265.281 31.7461 265.24 31.5586 265.158 31.375C265.076 31.1914 264.941 31.0391 264.754 30.918C264.566 30.793 264.316 30.7305 264.004 30.7305H262.1V29.8398ZM268.627 27.6602V34H267.543V27.6602H268.627Z" fill="black"></path> <path d="M271.258 27.6602L272.646 29.9688L274.053 27.6602H275.324L273.25 30.7891L275.389 34H274.135L272.67 31.6211L271.205 34H269.945L272.078 30.7891L270.01 27.6602H271.258Z" fill="black"></path> <path d="M280.633 27.6602V34H279.549V27.6602H280.633ZM284.793 27.6602L281.787 31.293H280.27L280.105 30.3438H281.348L283.475 27.6602H284.793ZM283.627 34L281.295 31.1289L281.992 30.3438L285.004 34H283.627Z" fill="black"></path> <path d="M287.729 33.3438L289.492 27.6602H290.652L288.109 34.9785C288.051 35.1348 287.973 35.3027 287.875 35.4824C287.781 35.666 287.66 35.8398 287.512 36.0039C287.363 36.168 287.184 36.3008 286.973 36.4023C286.766 36.5078 286.518 36.5605 286.229 36.5605C286.143 36.5605 286.033 36.5488 285.9 36.5254C285.768 36.502 285.674 36.4824 285.619 36.4668L285.613 35.5879C285.645 35.5918 285.693 35.5957 285.76 35.5996C285.83 35.6074 285.879 35.6113 285.906 35.6113C286.152 35.6113 286.361 35.5781 286.533 35.5117C286.705 35.4492 286.85 35.3418 286.967 35.1895C287.088 35.041 287.191 34.8359 287.277 34.5742L287.729 33.3438ZM286.434 27.6602L288.08 32.582L288.361 33.7246L287.582 34.123L285.25 27.6602H286.434Z" fill="black"></path> <path d="M292.363 27.6602L293.752 29.9688L295.158 27.6602H296.43L294.355 30.7891L296.494 34H295.24L293.775 31.6211L292.311 34H291.051L293.184 30.7891L291.115 27.6602H292.363Z" fill="black"></path> <path d="M297.18 30.9004V30.7656C297.18 30.3086 297.246 29.8848 297.379 29.4941C297.512 29.0996 297.703 28.7578 297.953 28.4688C298.203 28.1758 298.506 27.9492 298.861 27.7891C299.217 27.625 299.615 27.543 300.057 27.543C300.502 27.543 300.902 27.625 301.258 27.7891C301.617 27.9492 301.922 28.1758 302.172 28.4688C302.426 28.7578 302.619 29.0996 302.752 29.4941C302.885 29.8848 302.951 30.3086 302.951 30.7656V30.9004C302.951 31.3574 302.885 31.7812 302.752 32.1719C302.619 32.5625 302.426 32.9043 302.172 33.1973C301.922 33.4863 301.619 33.7129 301.264 33.877C300.912 34.0371 300.514 34.1172 300.068 34.1172C299.623 34.1172 299.223 34.0371 298.867 33.877C298.512 33.7129 298.207 33.4863 297.953 33.1973C297.703 32.9043 297.512 32.5625 297.379 32.1719C297.246 31.7812 297.18 31.3574 297.18 30.9004ZM298.264 30.7656V30.9004C298.264 31.2168 298.301 31.5156 298.375 31.7969C298.449 32.0742 298.561 32.3203 298.709 32.5352C298.861 32.75 299.051 32.9199 299.277 33.0449C299.504 33.166 299.768 33.2266 300.068 33.2266C300.365 33.2266 300.625 33.166 300.848 33.0449C301.074 32.9199 301.262 32.75 301.41 32.5352C301.559 32.3203 301.67 32.0742 301.744 31.7969C301.822 31.5156 301.861 31.2168 301.861 30.9004V30.7656C301.861 30.4531 301.822 30.1582 301.744 29.8809C301.67 29.5996 301.557 29.3516 301.404 29.1367C301.256 28.918 301.068 28.7461 300.842 28.6211C300.619 28.4961 300.357 28.4336 300.057 28.4336C299.76 28.4336 299.498 28.4961 299.271 28.6211C299.049 28.7461 298.861 28.918 298.709 29.1367C298.561 29.3516 298.449 29.5996 298.375 29.8809C298.301 30.1582 298.264 30.4531 298.264 30.7656Z" fill="black"></path> <path d="M308.611 30.4082V31.2871H305.26V30.4082H308.611ZM305.488 27.6602V34H304.404V27.6602H305.488ZM309.49 27.6602V34H308.4V27.6602H309.49Z" fill="black"></path> <path d="M312.127 29.8398H314.031C314.543 29.8398 314.975 29.9297 315.326 30.1094C315.678 30.2852 315.943 30.5293 316.123 30.8418C316.307 31.1504 316.398 31.502 316.398 31.8965C316.398 32.1895 316.348 32.4648 316.246 32.7227C316.145 32.9766 315.992 33.1992 315.789 33.3906C315.59 33.582 315.342 33.7324 315.045 33.8418C314.752 33.9473 314.414 34 314.031 34H311.336V27.6602H312.42V33.1094H314.031C314.344 33.1094 314.594 33.0527 314.781 32.9395C314.969 32.8262 315.104 32.6797 315.186 32.5C315.268 32.3203 315.309 32.1328 315.309 31.9375C315.309 31.7461 315.268 31.5586 315.186 31.375C315.104 31.1914 314.969 31.0391 314.781 30.918C314.594 30.793 314.344 30.7305 314.031 30.7305H312.127V29.8398Z" fill="black"></path> <path d="M163.803 48.2109H161.723L161.711 47.3438H163.41C163.746 47.3438 164.025 47.3105 164.248 47.2441C164.475 47.1777 164.645 47.0781 164.758 46.9453C164.871 46.8125 164.928 46.6484 164.928 46.4531C164.928 46.3008 164.895 46.168 164.828 46.0547C164.766 45.9375 164.67 45.8418 164.541 45.7676C164.412 45.6895 164.252 45.6328 164.061 45.5977C163.873 45.5586 163.652 45.5391 163.398 45.5391H162.01V51H160.926V44.6602H163.398C163.801 44.6602 164.162 44.6953 164.482 44.7656C164.807 44.8359 165.082 44.9434 165.309 45.0879C165.539 45.2285 165.715 45.4082 165.836 45.627C165.957 45.8457 166.018 46.1035 166.018 46.4004C166.018 46.5918 165.979 46.7734 165.9 46.9453C165.822 47.1172 165.707 47.2695 165.555 47.4023C165.402 47.5352 165.215 47.6445 164.992 47.7305C164.77 47.8125 164.514 47.8652 164.225 47.8887L163.803 48.2109ZM163.803 51H161.33L161.869 50.1211H163.803C164.104 50.1211 164.354 50.084 164.553 50.0098C164.752 49.9316 164.9 49.8223 164.998 49.6816C165.1 49.5371 165.15 49.3652 165.15 49.166C165.15 48.9668 165.1 48.7969 164.998 48.6562C164.9 48.5117 164.752 48.4023 164.553 48.3281C164.354 48.25 164.104 48.2109 163.803 48.2109H162.156L162.168 47.3438H164.225L164.617 47.6719C164.965 47.6992 165.26 47.7852 165.502 47.9297C165.744 48.0742 165.928 48.2578 166.053 48.4805C166.178 48.6992 166.24 48.9375 166.24 49.1953C166.24 49.4922 166.184 49.7539 166.07 49.9805C165.961 50.207 165.801 50.3965 165.59 50.5488C165.379 50.6973 165.123 50.8105 164.822 50.8887C164.521 50.9629 164.182 51 163.803 51Z" fill="black"></path> <path d="M172.018 42.4688V51H170.887V42.4688H172.018ZM177.273 42.4688L173.57 47.1621H171.566L171.391 46.2246H172.896L175.873 42.4688H177.273ZM176.137 51L172.932 47.0156L173.564 46.0254L177.52 51H176.137Z" fill="black"></path> <path d="M182.119 49.916V46.6523C182.119 46.4023 182.068 46.1855 181.967 46.002C181.869 45.8145 181.721 45.6699 181.521 45.5684C181.322 45.4668 181.076 45.416 180.783 45.416C180.51 45.416 180.27 45.4629 180.062 45.5566C179.859 45.6504 179.699 45.7734 179.582 45.9258C179.469 46.0781 179.412 46.2422 179.412 46.418H178.328C178.328 46.1914 178.387 45.9668 178.504 45.7441C178.621 45.5215 178.789 45.3203 179.008 45.1406C179.23 44.957 179.496 44.8125 179.805 44.707C180.117 44.5977 180.465 44.543 180.848 44.543C181.309 44.543 181.715 44.6211 182.066 44.7773C182.422 44.9336 182.699 45.1699 182.898 45.4863C183.102 45.7988 183.203 46.1914 183.203 46.6641V49.6172C183.203 49.8281 183.221 50.0527 183.256 50.291C183.295 50.5293 183.352 50.7344 183.426 50.9062V51H182.295C182.24 50.875 182.197 50.709 182.166 50.502C182.135 50.291 182.119 50.0957 182.119 49.916ZM182.307 47.1562L182.318 47.918H181.223C180.914 47.918 180.639 47.9434 180.396 47.9941C180.154 48.041 179.951 48.1133 179.787 48.2109C179.623 48.3086 179.498 48.4316 179.412 48.5801C179.326 48.7246 179.283 48.8945 179.283 49.0898C179.283 49.2891 179.328 49.4707 179.418 49.6348C179.508 49.7988 179.643 49.9297 179.822 50.0273C180.006 50.1211 180.23 50.168 180.496 50.168C180.828 50.168 181.121 50.0977 181.375 49.957C181.629 49.8164 181.83 49.6445 181.979 49.4414C182.131 49.2383 182.213 49.041 182.225 48.8496L182.688 49.3711C182.66 49.5352 182.586 49.7168 182.465 49.916C182.344 50.1152 182.182 50.3066 181.979 50.4902C181.779 50.6699 181.541 50.8203 181.264 50.9414C180.99 51.0586 180.682 51.1172 180.338 51.1172C179.908 51.1172 179.531 51.0332 179.207 50.8652C178.887 50.6973 178.637 50.4727 178.457 50.1914C178.281 49.9062 178.193 49.5879 178.193 49.2363C178.193 48.8965 178.26 48.5977 178.393 48.3398C178.525 48.0781 178.717 47.8613 178.967 47.6895C179.217 47.5137 179.518 47.3809 179.869 47.291C180.221 47.2012 180.613 47.1562 181.047 47.1562H182.307Z" fill="black"></path> <path d="M187.275 47.9707H186.109V47.3027H187.188C187.488 47.3027 187.727 47.2656 187.902 47.1914C188.078 47.1133 188.203 47.0059 188.277 46.8691C188.352 46.7324 188.389 46.5723 188.389 46.3887C188.389 46.2246 188.346 46.0703 188.26 45.9258C188.178 45.7773 188.045 45.6582 187.861 45.5684C187.678 45.4746 187.432 45.4277 187.123 45.4277C186.873 45.4277 186.646 45.4727 186.443 45.5625C186.24 45.6484 186.078 45.7676 185.957 45.9199C185.84 46.0684 185.781 46.2363 185.781 46.4238H184.697C184.697 46.0371 184.807 45.7051 185.025 45.4277C185.248 45.1465 185.543 44.9297 185.91 44.7773C186.281 44.625 186.686 44.5488 187.123 44.5488C187.49 44.5488 187.818 44.5898 188.107 44.6719C188.4 44.75 188.648 44.8672 188.852 45.0234C189.055 45.1758 189.209 45.3672 189.314 45.5977C189.424 45.8242 189.479 46.0879 189.479 46.3887C189.479 46.6035 189.428 46.8066 189.326 46.998C189.225 47.1895 189.078 47.3594 188.887 47.5078C188.695 47.6523 188.463 47.7656 188.189 47.8477C187.92 47.9297 187.615 47.9707 187.275 47.9707ZM186.109 47.5605H187.275C187.654 47.5605 187.988 47.5977 188.277 47.6719C188.566 47.7422 188.809 47.8477 189.004 47.9883C189.199 48.1289 189.346 48.3027 189.443 48.5098C189.545 48.7129 189.596 48.9473 189.596 49.2129C189.596 49.5098 189.535 49.7773 189.414 50.0156C189.297 50.25 189.129 50.4492 188.91 50.6133C188.691 50.7773 188.43 50.9023 188.125 50.9883C187.824 51.0742 187.49 51.1172 187.123 51.1172C186.713 51.1172 186.314 51.0469 185.928 50.9062C185.541 50.7656 185.223 50.5488 184.973 50.2559C184.723 49.959 184.598 49.582 184.598 49.125H185.682C185.682 49.3164 185.742 49.498 185.863 49.6699C185.984 49.8418 186.152 49.9805 186.367 50.0859C186.586 50.1914 186.838 50.2441 187.123 50.2441C187.428 50.2441 187.682 50.1973 187.885 50.1035C188.088 50.0098 188.24 49.8848 188.342 49.7285C188.447 49.5723 188.5 49.4023 188.5 49.2188C188.5 48.9805 188.453 48.7891 188.359 48.6445C188.266 48.5 188.121 48.3945 187.926 48.3281C187.734 48.2578 187.488 48.2227 187.188 48.2227H186.109V47.5605Z" fill="black"></path> <path d="M194.74 49.916V46.6523C194.74 46.4023 194.689 46.1855 194.588 46.002C194.49 45.8145 194.342 45.6699 194.143 45.5684C193.943 45.4668 193.697 45.416 193.404 45.416C193.131 45.416 192.891 45.4629 192.684 45.5566C192.48 45.6504 192.32 45.7734 192.203 45.9258C192.09 46.0781 192.033 46.2422 192.033 46.418H190.949C190.949 46.1914 191.008 45.9668 191.125 45.7441C191.242 45.5215 191.41 45.3203 191.629 45.1406C191.852 44.957 192.117 44.8125 192.426 44.707C192.738 44.5977 193.086 44.543 193.469 44.543C193.93 44.543 194.336 44.6211 194.688 44.7773C195.043 44.9336 195.32 45.1699 195.52 45.4863C195.723 45.7988 195.824 46.1914 195.824 46.6641V49.6172C195.824 49.8281 195.842 50.0527 195.877 50.291C195.916 50.5293 195.973 50.7344 196.047 50.9062V51H194.916C194.861 50.875 194.818 50.709 194.787 50.502C194.756 50.291 194.74 50.0957 194.74 49.916ZM194.928 47.1562L194.939 47.918H193.844C193.535 47.918 193.26 47.9434 193.018 47.9941C192.775 48.041 192.572 48.1133 192.408 48.2109C192.244 48.3086 192.119 48.4316 192.033 48.5801C191.947 48.7246 191.904 48.8945 191.904 49.0898C191.904 49.2891 191.949 49.4707 192.039 49.6348C192.129 49.7988 192.264 49.9297 192.443 50.0273C192.627 50.1211 192.852 50.168 193.117 50.168C193.449 50.168 193.742 50.0977 193.996 49.957C194.25 49.8164 194.451 49.6445 194.6 49.4414C194.752 49.2383 194.834 49.041 194.846 48.8496L195.309 49.3711C195.281 49.5352 195.207 49.7168 195.086 49.916C194.965 50.1152 194.803 50.3066 194.6 50.4902C194.4 50.6699 194.162 50.8203 193.885 50.9414C193.611 51.0586 193.303 51.1172 192.959 51.1172C192.529 51.1172 192.152 51.0332 191.828 50.8652C191.508 50.6973 191.258 50.4727 191.078 50.1914C190.902 49.9062 190.814 49.5879 190.814 49.2363C190.814 48.8965 190.881 48.5977 191.014 48.3398C191.146 48.0781 191.338 47.8613 191.588 47.6895C191.838 47.5137 192.139 47.3809 192.49 47.291C192.842 47.2012 193.234 47.1562 193.668 47.1562H194.928Z" fill="black"></path> <path d="M198.262 44.6602L199.65 46.9688L201.057 44.6602H202.328L200.254 47.7891L202.393 51H201.139L199.674 48.6211L198.209 51H196.949L199.082 47.7891L197.014 44.6602H198.262Z" fill="black"></path> <path d="M205.902 50.2266C206.16 50.2266 206.398 50.1738 206.617 50.0684C206.836 49.9629 207.016 49.8184 207.156 49.6348C207.297 49.4473 207.377 49.2344 207.396 48.9961H208.428C208.408 49.3711 208.281 49.7207 208.047 50.0449C207.816 50.3652 207.514 50.625 207.139 50.8242C206.764 51.0195 206.352 51.1172 205.902 51.1172C205.426 51.1172 205.01 51.0332 204.654 50.8652C204.303 50.6973 204.01 50.4668 203.775 50.1738C203.545 49.8809 203.371 49.5449 203.254 49.166C203.141 48.7832 203.084 48.3789 203.084 47.9531V47.707C203.084 47.2812 203.141 46.8789 203.254 46.5C203.371 46.1172 203.545 45.7793 203.775 45.4863C204.01 45.1934 204.303 44.9629 204.654 44.7949C205.01 44.627 205.426 44.543 205.902 44.543C206.398 44.543 206.832 44.6445 207.203 44.8477C207.574 45.0469 207.865 45.3203 208.076 45.668C208.291 46.0117 208.408 46.4023 208.428 46.8398H207.396C207.377 46.5781 207.303 46.3418 207.174 46.1309C207.049 45.9199 206.877 45.752 206.658 45.627C206.443 45.498 206.191 45.4336 205.902 45.4336C205.57 45.4336 205.291 45.5 205.064 45.6328C204.842 45.7617 204.664 45.9375 204.531 46.1602C204.402 46.3789 204.309 46.623 204.25 46.8926C204.195 47.1582 204.168 47.4297 204.168 47.707V47.9531C204.168 48.2305 204.195 48.5039 204.25 48.7734C204.305 49.043 204.396 49.2871 204.525 49.5059C204.658 49.7246 204.836 49.9004 205.059 50.0332C205.285 50.1621 205.566 50.2266 205.902 50.2266Z" fill="black"></path> <path d="M212.23 44.6602V51H211.141V44.6602H212.23ZM214.357 44.6602V45.5391H209.055V44.6602H214.357Z" fill="black"></path> <path d="M219.068 49.916V46.6523C219.068 46.4023 219.018 46.1855 218.916 46.002C218.818 45.8145 218.67 45.6699 218.471 45.5684C218.271 45.4668 218.025 45.416 217.732 45.416C217.459 45.416 217.219 45.4629 217.012 45.5566C216.809 45.6504 216.648 45.7734 216.531 45.9258C216.418 46.0781 216.361 46.2422 216.361 46.418H215.277C215.277 46.1914 215.336 45.9668 215.453 45.7441C215.57 45.5215 215.738 45.3203 215.957 45.1406C216.18 44.957 216.445 44.8125 216.754 44.707C217.066 44.5977 217.414 44.543 217.797 44.543C218.258 44.543 218.664 44.6211 219.016 44.7773C219.371 44.9336 219.648 45.1699 219.848 45.4863C220.051 45.7988 220.152 46.1914 220.152 46.6641V49.6172C220.152 49.8281 220.17 50.0527 220.205 50.291C220.244 50.5293 220.301 50.7344 220.375 50.9062V51H219.244C219.189 50.875 219.146 50.709 219.115 50.502C219.084 50.291 219.068 50.0957 219.068 49.916ZM219.256 47.1562L219.268 47.918H218.172C217.863 47.918 217.588 47.9434 217.346 47.9941C217.104 48.041 216.9 48.1133 216.736 48.2109C216.572 48.3086 216.447 48.4316 216.361 48.5801C216.275 48.7246 216.232 48.8945 216.232 49.0898C216.232 49.2891 216.277 49.4707 216.367 49.6348C216.457 49.7988 216.592 49.9297 216.771 50.0273C216.955 50.1211 217.18 50.168 217.445 50.168C217.777 50.168 218.07 50.0977 218.324 49.957C218.578 49.8164 218.779 49.6445 218.928 49.4414C219.08 49.2383 219.162 49.041 219.174 48.8496L219.637 49.3711C219.609 49.5352 219.535 49.7168 219.414 49.916C219.293 50.1152 219.131 50.3066 218.928 50.4902C218.729 50.6699 218.49 50.8203 218.213 50.9414C217.939 51.0586 217.631 51.1172 217.287 51.1172C216.857 51.1172 216.48 51.0332 216.156 50.8652C215.836 50.6973 215.586 50.4727 215.406 50.1914C215.23 49.9062 215.143 49.5879 215.143 49.2363C215.143 48.8965 215.209 48.5977 215.342 48.3398C215.475 48.0781 215.666 47.8613 215.916 47.6895C216.166 47.5137 216.467 47.3809 216.818 47.291C217.17 47.2012 217.562 47.1562 217.996 47.1562H219.256Z" fill="black"></path> <path d="M226.158 47.4082V48.2871H222.807V47.4082H226.158ZM223.035 44.6602V51H221.951V44.6602H223.035ZM227.037 44.6602V51H225.947V44.6602H227.037Z" fill="black"></path> <path d="M231.414 51.1172C230.973 51.1172 230.572 51.043 230.213 50.8945C229.857 50.7422 229.551 50.5293 229.293 50.2559C229.039 49.9824 228.844 49.6582 228.707 49.2832C228.57 48.9082 228.502 48.498 228.502 48.0527V47.8066C228.502 47.291 228.578 46.832 228.73 46.4297C228.883 46.0234 229.09 45.6797 229.352 45.3984C229.613 45.1172 229.91 44.9043 230.242 44.7598C230.574 44.6152 230.918 44.543 231.273 44.543C231.727 44.543 232.117 44.6211 232.445 44.7773C232.777 44.9336 233.049 45.1523 233.26 45.4336C233.471 45.7109 233.627 46.0391 233.729 46.418C233.83 46.793 233.881 47.2031 233.881 47.6484V48.1348H229.146V47.25H232.797V47.168C232.781 46.8867 232.723 46.6133 232.621 46.3477C232.523 46.082 232.367 45.8633 232.152 45.6914C231.938 45.5195 231.645 45.4336 231.273 45.4336C231.027 45.4336 230.801 45.4863 230.594 45.5918C230.387 45.6934 230.209 45.8457 230.061 46.0488C229.912 46.252 229.797 46.5 229.715 46.793C229.633 47.0859 229.592 47.4238 229.592 47.8066V48.0527C229.592 48.3535 229.633 48.6367 229.715 48.9023C229.801 49.1641 229.924 49.3945 230.084 49.5938C230.248 49.793 230.445 49.9492 230.676 50.0625C230.91 50.1758 231.176 50.2324 231.473 50.2324C231.855 50.2324 232.18 50.1543 232.445 49.998C232.711 49.8418 232.943 49.6328 233.143 49.3711L233.799 49.8926C233.662 50.0996 233.488 50.2969 233.277 50.4844C233.066 50.6719 232.807 50.8242 232.498 50.9414C232.193 51.0586 231.832 51.1172 231.414 51.1172Z" fill="black"></path> </svg> 